<svg id="visual" viewBox="0 0 960 540" width="960" height="540" xmlns="http://www.w3.org/2000/svg" xmlns:xlink="http://www.w3.org/1999/xlink" version="1.1"><path d="M0 33L53.3 47.5C106.7 62 213.3 91 320 104.5C426.7 118 533.3 116 640 105.2C746.7 94.3 853.3 74.7 906.7 64.8L960 55L960 0L906.7 0C853.3 0 746.7 0 640 0C533.3 0 426.7 0 320 0C213.3 0 106.7 0 53.3 0L0 0Z" fill="#c7d6ee"></path><path d="M0 325L53.3 296.2C106.7 267.3 213.3 209.7 320 198C426.7 186.3 533.3 220.7 640 236.8C746.7 253 853.3 251 906.7 250L960 249L960 53L906.7 62.8C853.3 72.7 746.7 92.3 640 103.2C533.3 114 426.7 116 320 102.5C213.3 89 106.7 60 53.3 45.5L0 31Z" fill="#b5c9e9"></path><path d="M0 438L53.3 429C106.7 420 213.3 402 320 406.5C426.7 411 533.3 438 640 443.5C746.7 449 853.3 433 906.7 425L960 417L960 247L906.7 248C853.3 249 746.7 251 640 234.8C533.3 218.7 426.7 184.3 320 196C213.3 207.7 106.7 265.3 53.3 294.2L0 323Z" fill="#9eb7de"></path><path d="M0 541L53.3 541C106.7 541 213.3 541 320 541C426.7 541 533.3 541 640 541C746.7 541 853.3 541 906.7 541L960 541L960 415L906.7 423C853.3 431 746.7 447 640 441.5C533.3 436 426.7 409 320 404.5C213.3 400 106.7 418 53.3 427L0 436Z" fill="#829ecd"></path></svg>